{"glyphs":{"0":{"ha":1647,"x_min":0,"x_max":0,"o":"m 1311 729 l 1311 365 b 1190 243 1311 298 1257 243 l 460 243 b 339 365 393 243 339 298 l 339 608 b 460 729 339 675 393 729 l 1311 729 l 1311 972 l 460 972 b 96 608 259 972 96 809 l 96 365 b 460 0 96 164 259 0 l 1190 0 b 1554 365 1391 0 1554 164 l 1554 729 z "},"1":{"ha":900,"x_min":0,"x_max":0,"o":"m 799 0 l 799 729 l 556 729 l 556 0 z m 313 972 b 69 729 178 972 69 863 l 69 608 l 313 608 l 313 729 l 556 729 l 556 972 z "},"2":{"ha":1643,"x_min":0,"x_max":0,"o":"m 1223 343 b 1551 706 1410 362 1551 518 l 1551 729 l 1308 729 l 1308 706 b 1199 585 1308 643 1261 591 l 421 507 b 93 145 234 489 93 333 l 93 0 l 1551 0 l 1551 243 l 386 243 b 446 266 403 255 423 263 z m 458 972 b 93 608 257 972 93 809 l 336 608 b 458 729 336 675 391 729 l 1308 729 l 1308 972 z "},"3":{"ha":1639,"x_min":0,"x_max":0,"o":"m 1547 729 l 1304 729 b 1183 608 1304 662 1250 608 l 453 608 l 453 365 l 1304 365 b 1183 243 1304 298 1250 243 l 453 243 b 332 365 386 243 332 298 l 89 365 b 453 0 89 164 252 0 l 1183 0 b 1547 365 1384 0 1547 164 l 1547 486 b 1511 572 1547 520 1533 550 b 1547 729 1534 620 1547 673 z m 1304 729 l 1304 972 l 89 972 l 89 729 z "},"4":{"ha":1654,"x_min":0,"x_max":0,"o":"m 1300 972 l 1300 486 l 328 486 l 328 557 l 743 972 l 399 972 l 120 694 b 85 608 98 671 85 640 l 85 365 b 206 243 85 297 139 243 l 1300 243 l 1300 0 l 1543 0 l 1543 972 z "},"5":{"ha":1656,"x_min":0,"x_max":0,"o":"m 97 729 l 97 486 b 219 365 97 419 152 365 l 1313 365 l 1313 243 l 97 243 l 97 0 l 1313 0 b 1556 243 1447 0 1556 109 l 1556 365 b 1313 608 1556 499 1447 608 l 340 608 l 340 729 z m 1556 729 l 1556 972 l 340 972 l 340 729 z "},"6":{"ha":1656,"x_min":0,"x_max":0,"o":"m 97 729 l 97 243 b 340 0 97 109 206 0 l 1313 0 b 1556 243 1447 0 1556 109 l 1556 365 b 1313 608 1556 499 1447 608 l 340 608 l 340 729 z m 1313 365 l 1313 243 l 340 243 l 340 365 z m 1556 729 l 1556 972 l 340 972 l 340 729 z "},"7":{"ha":1588,"x_min":0,"x_max":0,"o":"m 1278 715 l 625 633 b 306 272 443 611 306 455 l 306 0 l 549 0 l 549 272 b 655 392 549 333 594 385 l 1414 487 b 1521 608 1475 495 1521 546 l 1521 729 l 1278 729 z m 1278 729 l 1278 972 l 62 972 l 62 729 z "},"8":{"ha":1626,"x_min":0,"x_max":0,"o":"m 1419 576 b 1422 608 1421 586 1422 597 l 1422 729 l 1178 729 l 1178 608 l 449 608 l 449 729 l 1178 729 l 1178 972 l 449 972 b 206 729 315 972 206 863 l 206 608 b 209 576 206 597 207 586 b 85 365 135 534 85 455 l 85 243 b 328 0 85 109 194 0 l 1300 0 b 1543 243 1434 0 1543 109 l 1543 365 b 1419 576 1543 455 1493 534 z m 328 243 l 328 365 l 1300 365 l 1300 243 z "},"9":{"ha":1657,"x_min":0,"x_max":0,"o":"m 1317 729 l 1317 608 l 344 608 l 344 729 l 1317 729 l 1317 972 l 344 972 b 101 729 210 972 101 863 l 101 608 b 344 365 101 474 210 365 l 1317 365 l 1317 243 l 101 243 l 101 0 l 1317 0 b 1560 243 1451 0 1560 109 l 1560 729 z "},"\u0000":{"ha":0,"x_min":0,"x_max":0,"o":""},"\n":{"ha":0,"x_min":0,"x_max":0,"o":""},"\r":{"ha":0,"x_min":0,"x_max":0,"o":""}," ":{"ha":775,"x_min":0,"x_max":0,"o":""},"!":{"ha":451,"x_min":0,"x_max":0,"o":"m 347 365 l 347 972 l 104 972 l 104 365 z m 347 0 l 347 243 l 104 243 l 104 0 z "},"\"":{"ha":1225,"x_min":0,"x_max":0,"o":"m 1136 922 b 1038 972 1113 953 1077 972 l 673 972 l 673 729 l 869 729 l 788 486 l 1044 486 l 1153 812 b 1136 922 1165 849 1159 890 z m 430 972 l 65 972 l 65 729 l 261 729 l 180 486 l 436 486 l 545 812 b 528 922 558 849 551 890 b 430 972 506 953 469 972 z "},"#":{"ha":1169,"x_min":0,"x_max":0,"o":"m 1071 608 l 1071 851 l 949 851 l 949 972 l 706 972 l 706 851 l 463 851 l 463 972 l 220 972 l 220 851 l 99 851 l 99 608 l 220 608 l 220 365 l 99 365 l 99 122 l 220 122 l 220 0 l 463 0 l 463 122 l 706 122 l 706 0 l 949 0 l 949 122 l 1071 122 l 1071 365 l 949 365 l 949 608 z m 706 365 l 463 365 l 463 608 l 706 608 z "},"$":{"ha":1654,"x_min":0,"x_max":0,"o":"m 92 729 l 92 668 b 395 365 92 501 228 365 l 699 365 l 699 243 l 92 243 l 92 0 l 699 0 l 699 -243 l 942 -243 l 942 0 l 1246 0 b 1550 304 1414 0 1550 136 l 1550 608 l 395 608 b 335 668 362 608 335 635 l 335 729 z m 942 365 l 1307 365 l 1307 304 b 1246 243 1307 270 1280 243 l 942 243 z m 1550 972 l 942 972 l 942 1215 l 699 1215 l 699 972 l 335 972 l 335 729 l 1550 729 z "},"%":{"ha":1618,"x_min":0,"x_max":0,"o":"m 687 608 l 687 729 b 444 972 687 863 578 972 l 322 972 b 79 729 188 972 79 863 l 79 608 b 322 365 79 474 188 365 l 444 365 b 687 608 578 365 687 474 z m 322 729 l 444 729 l 444 608 l 322 608 z m 1294 608 l 1173 608 b 930 365 1039 608 930 499 l 930 243 b 1173 0 930 109 1039 0 l 1294 0 b 1538 243 1428 0 1538 109 l 1538 365 b 1294 608 1538 499 1428 608 z m 1173 243 l 1173 365 l 1294 365 l 1295 243 z m 915 972 l 413 0 l 687 0 l 1188 972 z "},"&":{"ha":1628,"x_min":0,"x_max":0,"o":"m 1296 608 l 1296 243 l 324 243 l 324 365 l 1053 365 l 1053 608 l 653 608 l 531 729 l 1053 729 l 1053 972 l 531 972 b 307 822 433 972 344 913 b 321 608 277 751 284 672 b 81 365 188 606 81 498 l 81 243 b 324 0 81 109 190 0 l 1296 0 b 1539 243 1430 0 1539 109 l 1539 608 z "},"'":{"ha":618,"x_min":0,"x_max":0,"o":"m 528 922 b 430 972 506 953 469 972 l 65 972 l 65 729 l 261 729 l 180 486 l 436 486 l 545 812 b 528 922 558 849 551 890 z "},"(":{"ha":688,"x_min":0,"x_max":0,"o":"m 340 344 l 340 628 b 376 714 340 661 353 691 l 634 972 l 290 972 l 204 886 b 97 628 135 817 97 726 l 97 344 b 204 86 97 246 135 155 l 290 0 l 634 0 l 376 258 b 340 344 353 281 340 311 z "},")":{"ha":688,"x_min":0,"x_max":0,"o":"m 482 886 l 397 972 l 53 972 l 311 714 b 346 628 334 691 346 661 l 346 344 b 311 258 346 311 334 281 l 53 0 l 397 0 l 482 86 b 589 344 551 155 589 246 l 589 628 b 482 886 589 726 551 817 z "},"*":{"ha":888,"x_min":0,"x_max":0,"o":"m 808 851 l 565 851 l 565 972 l 322 972 l 322 851 l 79 851 l 79 608 l 238 608 l 105 440 l 296 289 l 440 471 l 574 292 l 769 438 l 641 608 l 808 608 z "},"+":{"ha":871,"x_min":0,"x_max":0,"o":"m 557 608 l 557 851 l 314 851 l 314 608 l 71 608 l 71 365 l 314 365 l 314 122 l 557 122 l 557 365 l 800 365 l 800 608 z "},",":{"ha":594,"x_min":0,"x_max":0,"o":"m 519 193 b 420 243 496 224 459 243 l 56 243 l 56 0 l 252 0 l 171 -243 l 427 -243 l 535 83 b 519 193 548 120 542 161 z "},"-":{"ha":597,"x_min":0,"x_max":0,"o":"m 542 365 l 542 608 l 56 608 l 56 365 z "},".":{"ha":354,"x_min":0,"x_max":0,"o":"m 299 0 l 299 243 l 56 243 l 56 0 z "},"/":{"ha":867,"x_min":0,"x_max":0,"o":"m 549 972 l 47 0 l 321 0 l 822 972 z "},":":{"ha":399,"x_min":0,"x_max":0,"o":"m 321 0 l 321 243 l 78 243 l 78 0 z m 321 365 l 321 608 l 78 608 l 78 365 z "},";":{"ha":618,"x_min":0,"x_max":0,"o":"m 321 365 l 321 608 l 78 608 l 78 365 z m 541 193 b 442 243 518 224 481 243 l 78 243 l 78 0 l 274 0 l 193 -243 l 449 -243 l 558 83 b 541 193 570 120 564 161 z "},"<":{"ha":768,"x_min":0,"x_max":0,"o":"m 713 851 l 384 851 l 53 486 l 384 122 l 713 122 l 381 486 z "},"=":{"ha":885,"x_min":0,"x_max":0,"o":"m 807 608 l 807 851 l 78 851 l 78 608 z m 807 243 l 807 486 l 78 486 l 78 243 z "},">":{"ha":768,"x_min":0,"x_max":0,"o":"m 383 851 l 54 851 l 386 486 l 54 122 l 383 122 l 714 486 z "},"?":{"ha":1589,"x_min":0,"x_max":0,"o":"m 313 972 b 69 729 178 972 69 863 l 69 608 l 313 608 l 313 729 l 1285 729 l 1285 972 z m 1285 729 l 1285 707 l 872 625 b 677 386 759 602 677 502 l 677 365 l 920 365 l 920 386 l 1332 469 b 1528 707 1446 492 1528 592 l 1528 729 z m 920 0 l 920 243 l 677 243 l 677 0 z "},"@":{"ha":1674,"x_min":0,"x_max":0,"o":"m 1203 1215 l 474 1215 b 110 851 273 1215 110 1052 l 110 122 b 474 -243 110 -80 273 -243 l 839 -243 l 839 0 l 474 0 b 353 122 407 0 353 55 l 353 851 b 474 972 353 918 407 972 l 1203 972 b 1325 851 1270 972 1325 918 l 1325 365 b 1203 486 1258 365 1203 419 l 1203 608 l 960 608 l 960 486 b 982 365 960 443 968 403 l 839 365 b 717 486 772 365 717 419 b 839 608 717 553 772 608 l 960 608 l 960 851 l 839 851 b 474 486 638 851 474 687 b 839 122 474 285 638 122 l 1082 122 l 1082 215 b 1325 122 1147 157 1232 122 l 1447 122 b 1568 243 1514 122 1568 176 l 1568 851 b 1203 1215 1568 1052 1405 1215 z "},"A":{"ha":1649,"x_min":0,"x_max":0,"o":"m 1313 729 l 1313 486 l 340 486 l 340 608 b 462 729 340 675 395 729 l 1313 729 l 1313 972 l 462 972 b 97 608 261 972 97 809 l 97 0 l 340 0 l 340 243 l 1313 243 l 1313 0 l 1556 0 l 1556 729 z "},"B":{"ha":1600,"x_min":0,"x_max":0,"o":"m 1301 603 b 1308 668 1306 624 1308 646 b 1005 972 1308 836 1172 972 l 336 972 l 336 729 l 1005 729 b 1065 668 1038 729 1065 702 b 1005 608 1065 635 1038 608 l 336 608 l 336 729 l 93 729 l 93 0 l 1248 0 b 1551 304 1415 0 1551 136 b 1301 603 1551 453 1443 577 z m 1248 243 l 336 243 l 336 365 l 1248 365 b 1308 304 1281 365 1308 337 b 1248 243 1308 270 1281 243 z "},"C":{"ha":1606,"x_min":0,"x_max":0,"o":"m 1172 243 l 442 243 b 321 365 375 243 321 298 l 321 729 l 78 729 l 78 365 b 442 0 78 164 241 0 l 1172 0 b 1536 365 1373 0 1536 164 l 1293 365 b 1172 243 1293 298 1239 243 z m 1293 608 l 1536 608 b 1172 972 1536 809 1373 972 l 321 972 l 321 729 l 1172 729 b 1293 608 1239 729 1293 675 z "},"D":{"ha":1633,"x_min":0,"x_max":0,"o":"m 1187 972 l 336 972 l 336 729 l 1187 729 b 1308 608 1254 729 1308 675 l 1308 365 b 1187 243 1308 298 1254 243 l 336 243 l 336 729 l 93 729 l 93 0 l 1187 0 b 1551 365 1388 0 1551 164 l 1551 608 b 1187 972 1551 809 1388 972 z m 944 365 l 944 608 l 701 608 l 701 365 z "},"E":{"ha":1640,"x_min":0,"x_max":0,"o":"m 78 729 l 78 365 b 442 0 78 164 241 0 l 1536 0 l 1536 243 l 442 243 b 321 365 375 243 321 298 l 1536 365 l 1536 608 l 321 608 l 321 729 z m 1536 729 l 1536 972 l 321 972 l 321 729 z "},"F":{"ha":1626,"x_min":0,"x_max":0,"o":"m 1551 729 l 1551 972 l 336 972 l 336 729 z m 93 729 l 93 0 l 336 0 l 336 365 l 1551 365 l 1551 608 l 336 608 l 336 729 z "},"G":{"ha":1629,"x_min":0,"x_max":0,"o":"m 78 729 l 78 365 b 442 0 78 164 241 0 l 1172 0 b 1536 365 1373 0 1536 164 l 1536 608 l 807 608 l 807 365 l 1293 365 b 1172 243 1293 298 1239 243 l 442 243 b 321 365 375 243 321 298 l 321 729 z m 1536 729 l 1536 972 l 321 972 l 321 729 z "},"H":{"ha":1681,"x_min":0,"x_max":0,"o":"m 1326 972 l 1326 608 l 354 608 l 354 972 l 111 972 l 111 0 l 354 0 l 354 365 l 1326 365 l 1326 0 l 1569 0 l 1569 972 z "},"I":{"ha":465,"x_min":0,"x_max":0,"o":"m 354 0 l 354 972 l 111 972 l 111 0 z "},"J":{"ha":1610,"x_min":0,"x_max":0,"o":"m 1289 729 l 1289 365 b 1167 243 1289 298 1234 243 l 74 243 l 74 0 l 1167 0 b 1532 365 1368 0 1532 164 l 1532 729 z m 1289 729 l 1289 972 l 74 972 l 74 729 z "},"K":{"ha":1625,"x_min":0,"x_max":0,"o":"m 1300 595 b 1326 729 1317 636 1326 682 l 1326 972 l 1083 972 l 1083 729 b 962 608 1083 662 1029 608 l 354 608 l 354 972 l 111 972 l 111 0 l 354 0 l 354 365 l 1205 365 b 1326 243 1272 365 1326 310 l 1326 0 l 1569 0 l 1569 243 b 1300 595 1569 411 1455 552 z "},"L":{"ha":1590,"x_min":0,"x_max":0,"o":"m 460 243 b 339 365 393 243 339 298 l 339 972 l 96 972 l 96 365 b 460 0 96 164 259 0 l 1554 0 l 1554 243 z "},"M":{"ha":1649,"x_min":0,"x_max":0,"o":"m 1187 972 l 330 972 l 330 729 l 93 729 l 93 0 l 336 0 l 336 729 l 573 729 b 695 608 640 729 695 675 l 695 0 l 938 0 l 938 608 b 916 729 938 650 930 691 l 1187 729 b 1308 608 1254 729 1308 675 l 1308 0 l 1551 0 l 1551 608 b 1187 972 1551 809 1388 972 z "},"N":{"ha":1649,"x_min":0,"x_max":0,"o":"m 1187 972 l 336 972 l 336 729 l 1187 729 b 1308 608 1254 729 1308 675 l 1308 0 l 1551 0 l 1551 608 b 1187 972 1551 809 1388 972 z m 336 0 l 336 729 l 93 729 l 93 0 z "},"O":{"ha":1618,"x_min":0,"x_max":0,"o":"m 1172 972 l 321 972 l 321 729 l 1172 729 b 1293 608 1239 729 1293 675 l 1293 365 b 1172 243 1293 298 1239 243 l 442 243 b 321 365 375 243 321 298 l 321 729 l 78 729 l 78 365 b 442 0 78 164 241 0 l 1172 0 b 1536 365 1373 0 1536 164 l 1536 608 b 1172 972 1536 809 1373 972 z m 928 365 l 928 608 l 685 608 l 685 365 z "},"P":{"ha":1606,"x_min":0,"x_max":0,"o":"m 1187 972 l 336 972 l 336 729 l 1187 729 b 1308 608 1254 729 1308 675 b 1187 486 1308 541 1254 486 l 336 486 l 336 729 l 93 729 l 93 0 l 336 0 l 336 243 l 1187 243 b 1551 608 1388 243 1551 407 b 1187 972 1551 809 1388 972 z "},"Q":{"ha":1618,"x_min":0,"x_max":0,"o":"m 1172 972 l 321 972 l 321 729 l 1172 729 b 1293 608 1239 729 1293 675 l 1293 365 b 1172 243 1293 298 1239 243 l 442 243 b 321 365 375 243 321 298 l 321 729 l 78 729 l 78 365 b 442 0 78 164 241 0 l 685 0 l 685 -122 l 928 -122 l 928 0 l 1172 0 b 1536 365 1373 0 1536 164 l 1536 608 b 1172 972 1536 809 1373 972 z m 928 365 l 928 608 l 685 608 l 685 365 z "},"R":{"ha":1638,"x_min":0,"x_max":0,"o":"m 1551 608 b 1187 972 1551 809 1388 972 l 336 972 l 336 729 l 1187 729 b 1308 608 1254 729 1308 675 b 1187 486 1308 541 1254 486 l 336 486 l 336 729 l 93 729 l 93 0 l 336 0 l 336 243 l 1187 243 b 1308 122 1254 243 1308 189 l 1308 0 l 1551 0 l 1551 122 b 1458 365 1551 215 1516 300 b 1551 608 1516 429 1551 514 z "},"S":{"ha":1632,"x_min":0,"x_max":0,"o":"m 76 729 l 76 668 b 380 365 76 501 213 365 l 1292 365 l 1292 304 b 1231 243 1292 270 1264 243 l 76 243 l 76 0 l 1231 0 b 1535 304 1398 0 1535 136 l 1535 608 l 380 608 b 319 668 347 608 319 635 l 319 729 z m 1535 729 l 1535 972 l 319 972 l 319 729 z "},"T":{"ha":1531,"x_min":0,"x_max":0,"o":"m 36 972 l 36 729 l 644 729 l 644 0 l 887 0 l 887 729 l 1494 729 l 1494 972 z "},"U":{"ha":1646,"x_min":0,"x_max":0,"o":"m 1554 243 l 1554 972 l 1311 972 l 1311 243 z m 339 365 l 339 972 l 96 972 l 96 365 b 460 0 96 164 259 0 l 1311 0 l 1311 243 l 460 243 b 339 365 393 243 339 298 z "},"V":{"ha":1488,"x_min":0,"x_max":0,"o":"m 1197 972 l 742 304 l 286 972 l 13 972 l 643 53 b 743 0 666 20 703 0 b 843 53 783 0 821 20 l 1474 972 z "},"W":{"ha":1646,"x_min":0,"x_max":0,"o":"m 1311 972 l 1311 243 l 1074 243 b 953 365 1007 243 953 298 l 953 972 l 710 972 l 710 365 b 731 243 710 322 717 281 l 460 243 b 339 365 393 243 339 298 l 339 972 l 96 972 l 96 365 b 460 0 96 164 259 0 l 1317 0 l 1317 243 l 1554 243 l 1554 972 z "},"X":{"ha":1589,"x_min":0,"x_max":0,"o":"m 1355 550 b 1402 729 1385 603 1402 664 l 1402 972 l 1159 972 l 1159 729 b 1038 608 1159 662 1105 608 l 551 608 b 430 729 484 608 430 662 l 430 972 l 187 972 l 187 729 b 234 550 187 664 204 603 b 65 243 133 485 65 372 l 65 0 l 308 0 l 308 243 b 430 365 308 310 363 365 l 1159 365 b 1281 243 1226 365 1281 310 l 1281 0 l 1524 0 l 1524 243 b 1355 550 1524 372 1456 485 z "},"Y":{"ha":1590,"x_min":0,"x_max":0,"o":"m 1526 486 l 1526 972 l 1283 972 l 1283 486 z m 311 608 l 311 972 l 68 972 l 68 608 b 433 243 68 407 232 243 l 676 243 l 676 0 l 919 0 l 919 243 l 1283 243 l 1283 486 l 433 486 b 311 608 366 486 311 541 z "},"Z":{"ha":1625,"x_min":0,"x_max":0,"o":"m 455 365 l 1245 365 b 1549 668 1412 365 1549 501 l 1549 729 l 1306 729 l 1306 668 b 1245 608 1306 635 1278 608 l 455 608 b 90 243 254 608 90 444 l 90 0 l 1549 0 l 1549 243 l 333 243 b 455 365 333 310 388 365 z m 1306 729 l 1306 972 l 90 972 l 90 729 z "},"[":{"ha":569,"x_min":0,"x_max":0,"o":"m 476 729 l 476 972 l 111 972 l 111 0 l 476 0 l 476 243 l 354 243 l 354 729 z "},"\\":{"ha":867,"x_min":0,"x_max":0,"o":"m 318 972 l 44 972 l 546 0 l 819 0 z "},"]":{"ha":569,"x_min":0,"x_max":0,"o":"m 93 972 l 93 729 l 215 729 l 215 243 l 93 243 l 93 0 l 458 0 l 458 972 z "},"^":{"ha":882,"x_min":0,"x_max":0,"o":"m 585 972 l 296 972 l 46 486 l 319 486 l 441 722 l 562 486 l 836 486 z "},"_":{"ha":840,"x_min":0,"x_max":0,"o":"m 785 0 l 785 243 l 56 243 l 56 0 z "},"`":{"ha":756,"x_min":0,"x_max":0,"o":"m 351 972 l 38 972 l 402 486 l 715 486 z "},"a":{"ha":1664,"x_min":0,"x_max":0,"o":"m 460 972 b 96 608 259 972 96 809 l 96 0 l 339 0 l 339 243 l 1311 243 l 1311 0 l 1554 0 l 1554 972 z m 1311 486 l 339 486 l 339 608 b 460 729 339 675 393 729 l 1311 729 z "},"b":{"ha":1618,"x_min":0,"x_max":0,"o":"m 1319 603 b 1326 668 1324 624 1326 646 b 1023 972 1326 836 1190 972 l 111 972 l 111 0 l 1266 0 b 1569 304 1433 0 1569 136 b 1319 603 1569 453 1461 577 z m 354 729 l 1023 729 b 1083 668 1056 729 1083 702 b 1023 608 1083 635 1056 608 l 354 608 z m 1266 243 l 354 243 l 354 365 l 1266 365 b 1326 304 1299 365 1326 337 b 1266 243 1326 270 1299 243 z "},"c":{"ha":1624,"x_min":0,"x_max":0,"o":"m 1190 243 l 460 243 b 339 365 393 243 339 298 l 339 729 l 1190 729 b 1311 608 1257 729 1311 675 l 1554 608 b 1190 972 1554 809 1391 972 l 96 972 l 96 365 b 460 0 96 164 259 0 l 1190 0 b 1554 365 1391 0 1554 164 l 1311 365 b 1190 243 1311 298 1257 243 z "},"d":{"ha":1650,"x_min":0,"x_max":0,"o":"m 1203 972 l 110 972 l 110 0 l 1203 0 b 1568 365 1405 0 1568 164 l 1568 608 b 1203 972 1568 809 1405 972 z m 1325 365 b 1203 243 1325 298 1270 243 l 353 243 l 353 729 l 1203 729 b 1325 608 1270 729 1325 675 z m 960 365 l 960 608 l 717 608 l 717 365 z "},"e":{"ha":1658,"x_min":0,"x_max":0,"o":"m 1554 729 l 1554 972 l 96 972 l 96 365 b 460 0 96 164 259 0 l 1554 0 l 1554 243 l 460 243 b 339 365 393 243 339 298 l 1554 365 l 1554 608 l 339 608 l 339 729 z "},"f":{"ha":1643,"x_min":0,"x_max":0,"o":"m 1568 729 l 1568 972 l 110 972 l 110 0 l 353 0 l 353 365 l 1568 365 l 1568 608 l 353 608 l 353 729 z "},"g":{"ha":1647,"x_min":0,"x_max":0,"o":"m 1554 729 l 1554 972 l 96 972 l 96 365 b 460 0 96 164 259 0 l 1190 0 b 1554 365 1391 0 1554 164 l 1554 608 l 825 608 l 825 365 l 1311 365 b 1190 243 1311 298 1257 243 l 460 243 b 339 365 393 243 339 298 l 339 729 z "},"h":{"ha":1678,"x_min":0,"x_max":0,"o":"m 1325 972 l 1325 608 l 353 608 l 353 972 l 110 972 l 110 0 l 353 0 l 353 365 l 1325 365 l 1325 0 l 1568 0 l 1568 972 z "},"i":{"ha":463,"x_min":0,"x_max":0,"o":"m 353 0 l 353 972 l 110 972 l 110 0 z "},"j":{"ha":1626,"x_min":0,"x_max":0,"o":"m 72 972 l 72 729 l 1288 729 l 1288 365 b 1166 243 1288 298 1233 243 l 72 243 l 72 0 l 1166 0 b 1531 365 1367 0 1531 164 l 1531 972 z "},"k":{"ha":1625,"x_min":0,"x_max":0,"o":"m 1300 595 b 1326 729 1317 636 1326 682 l 1326 972 l 1083 972 l 1083 729 b 962 608 1083 662 1029 608 l 354 608 l 354 972 l 111 972 l 111 0 l 354 0 l 354 365 l 1205 365 b 1326 243 1272 365 1326 310 l 1326 0 l 1569 0 l 1569 243 b 1300 595 1569 411 1455 552 z "},"l":{"ha":1590,"x_min":0,"x_max":0,"o":"m 460 243 b 339 365 393 243 339 298 l 339 972 l 96 972 l 96 365 b 460 0 96 164 259 0 l 1554 0 l 1554 243 z "},"m":{"ha":1665,"x_min":0,"x_max":0,"o":"m 1205 977 l 111 977 l 111 5 l 354 5 l 354 734 l 591 734 b 713 612 658 734 713 679 l 713 5 l 956 5 l 956 612 b 934 734 956 655 948 696 l 1205 734 b 1326 612 1272 734 1326 679 l 1326 5 l 1569 5 l 1569 612 b 1205 977 1569 813 1406 977 z "},"n":{"ha":1665,"x_min":0,"x_max":0,"o":"m 1205 977 l 111 977 l 111 5 l 354 5 l 354 734 l 1205 734 b 1326 612 1272 734 1326 679 l 1326 5 l 1569 5 l 1569 612 b 1205 977 1569 813 1406 977 z "},"o":{"ha":1622,"x_min":0,"x_max":0,"o":"m 1176 972 l 447 972 b 82 608 245 972 82 809 l 82 365 b 447 0 82 164 245 0 l 1176 0 b 1540 365 1377 0 1540 164 l 1540 608 b 1176 972 1540 809 1377 972 z m 1297 365 b 1176 243 1297 298 1243 243 l 447 243 b 325 365 380 243 325 298 l 325 608 b 447 729 325 675 380 729 l 1176 729 b 1297 608 1243 729 1297 675 z m 933 365 l 933 608 l 690 608 l 690 365 z "},"p":{"ha":1624,"x_min":0,"x_max":0,"o":"m 1205 977 l 111 977 l 111 5 l 354 5 l 354 248 l 1205 248 b 1569 612 1406 248 1569 411 b 1205 977 1569 813 1406 977 z m 1205 491 l 354 491 l 354 734 l 1205 734 b 1326 612 1272 734 1326 679 b 1205 491 1326 545 1272 491 z "},"q":{"ha":1622,"x_min":0,"x_max":0,"o":"m 1176 972 l 447 972 b 82 608 245 972 82 809 l 82 365 b 447 0 82 164 245 0 l 690 0 l 690 -122 l 933 -122 l 933 0 l 1176 0 b 1540 365 1377 0 1540 164 l 1540 608 b 1176 972 1540 809 1377 972 z m 1297 365 b 1176 243 1297 298 1243 243 l 447 243 b 325 365 380 243 325 298 l 325 608 b 447 729 325 675 380 729 l 1176 729 b 1297 608 1243 729 1297 675 z m 933 365 l 933 608 l 690 608 l 690 365 z "},"r":{"ha":1656,"x_min":0,"x_max":0,"o":"m 1569 612 b 1205 977 1569 813 1406 977 l 111 977 l 111 5 l 354 5 l 354 248 l 1205 248 b 1326 126 1272 248 1326 193 l 1326 5 l 1569 5 l 1569 126 b 1476 369 1569 220 1534 305 b 1569 612 1534 434 1569 519 z m 1205 491 l 354 491 l 354 734 l 1205 734 b 1326 612 1272 734 1326 679 b 1205 491 1326 545 1272 491 z "},"s":{"ha":1650,"x_min":0,"x_max":0,"o":"m 1553 729 l 1553 972 l 94 972 l 94 668 b 398 365 94 501 231 365 l 1310 365 l 1310 304 b 1249 243 1310 270 1282 243 l 94 243 l 94 0 l 1249 0 b 1553 304 1417 0 1553 136 l 1553 608 l 398 608 b 338 668 365 608 338 635 l 338 729 z "},"t":{"ha":1528,"x_min":0,"x_max":0,"o":"m 35 977 l 35 734 l 642 734 l 642 5 l 885 5 l 885 734 l 1493 734 l 1493 977 z "},"u":{"ha":1664,"x_min":0,"x_max":0,"o":"m 1311 972 l 1311 243 l 460 243 b 339 365 393 243 339 298 l 339 972 l 96 972 l 96 365 b 460 0 96 164 259 0 l 1554 0 l 1554 972 z "},"v":{"ha":1488,"x_min":0,"x_max":0,"o":"m 1197 972 l 742 304 l 286 972 l 13 972 l 643 53 b 743 0 666 20 703 0 b 843 53 783 0 821 20 l 1474 972 z "},"w":{"ha":1664,"x_min":0,"x_max":0,"o":"m 1311 972 l 1311 243 l 1074 243 b 953 365 1007 243 953 298 l 953 972 l 710 972 l 710 365 b 731 243 710 322 717 281 l 460 243 b 339 365 393 243 339 298 l 339 972 l 96 972 l 96 365 b 460 0 96 164 259 0 l 1554 0 l 1554 972 z "},"x":{"ha":1589,"x_min":0,"x_max":0,"o":"m 1355 550 b 1402 729 1385 603 1402 664 l 1402 972 l 1159 972 l 1159 729 b 1038 608 1159 662 1105 608 l 551 608 b 430 729 484 608 430 662 l 430 972 l 187 972 l 187 729 b 234 550 187 664 204 603 b 65 243 133 485 65 372 l 65 0 l 308 0 l 308 243 b 430 365 308 310 363 365 l 1159 365 b 1281 243 1226 365 1281 310 l 1281 0 l 1524 0 l 1524 243 b 1355 550 1524 372 1456 485 z "},"y":{"ha":1618,"x_min":0,"x_max":0,"o":"m 1283 972 l 1283 486 l 433 486 b 311 608 366 486 311 541 l 311 972 l 68 972 l 68 608 b 433 243 68 407 232 243 l 676 243 l 676 0 l 919 0 l 919 243 l 1526 243 l 1526 972 z "},"z":{"ha":1643,"x_min":0,"x_max":0,"o":"m 455 365 l 1245 365 b 1549 668 1412 365 1549 501 l 1549 972 l 90 972 l 90 729 l 1306 729 l 1306 668 b 1245 608 1306 635 1278 608 l 455 608 b 90 243 254 608 90 444 l 90 0 l 1549 0 l 1549 243 l 333 243 b 455 365 333 310 388 365 z "},"{":{"ha":781,"x_min":0,"x_max":0,"o":"m 433 344 l 433 628 b 469 714 433 661 446 691 l 727 972 l 383 972 l 297 886 b 190 628 228 817 190 726 l 190 608 l 74 608 l 74 365 l 190 365 l 190 344 b 297 86 190 246 228 155 l 383 0 l 727 0 l 469 258 b 433 344 446 281 433 311 z "},"|":{"ha":465,"x_min":0,"x_max":0,"o":"m 354 -243 l 354 1215 l 111 1215 l 111 -243 z "},"}":{"ha":785,"x_min":0,"x_max":0,"o":"m 589 608 l 589 628 b 482 886 589 726 551 817 l 397 972 l 53 972 l 311 714 b 346 628 334 691 346 661 l 346 344 b 311 258 346 311 334 281 l 53 0 l 397 0 l 482 86 b 589 344 551 155 589 246 l 589 365 l 711 365 l 711 608 z "},"~":{"ha":1257,"x_min":0,"x_max":0,"o":"m 926 744 l 926 365 l 905 365 b 819 400 872 365 842 377 l 597 622 b 339 729 528 691 436 729 l 318 729 l 318 486 l 339 486 b 425 451 371 486 402 473 l 647 228 b 905 122 716 159 807 122 l 1047 122 b 1169 243 1114 122 1169 176 l 1169 744 z m 318 122 l 318 486 l 75 486 l 75 122 z "}," ":{"ha":775,"x_min":0,"x_max":0,"o":""},"­":{"ha":0,"x_min":0,"x_max":0,"o":""},"‘":{"ha":618,"x_min":0,"x_max":0,"o":"m 355 729 l 436 972 l 180 972 l 72 646 b 88 537 59 609 65 568 b 187 486 111 505 148 486 l 551 486 l 551 729 z "},"’":{"ha":618,"x_min":0,"x_max":0,"o":"m 528 922 b 430 972 506 953 469 972 l 65 972 l 65 729 l 261 729 l 180 486 l 436 486 l 545 812 b 528 922 558 849 551 890 z "},"‚":{"ha":618,"x_min":0,"x_max":0,"o":"m 528 436 b 430 486 506 467 469 486 l 65 486 l 65 243 l 261 243 l 180 0 l 436 0 l 545 326 b 528 436 558 363 551 404 z "},"“":{"ha":1225,"x_min":0,"x_max":0,"o":"m 436 972 l 180 972 l 72 646 b 88 537 59 609 65 568 b 187 486 111 505 148 486 l 551 486 l 551 729 l 355 729 z m 963 729 l 1044 972 l 788 972 l 679 646 b 696 537 667 609 673 568 b 794 486 719 505 755 486 l 1159 486 l 1159 729 z "},"”":{"ha":1225,"x_min":0,"x_max":0,"o":"m 1136 922 b 1038 972 1113 953 1077 972 l 673 972 l 673 729 l 869 729 l 788 486 l 1044 486 l 1153 812 b 1136 922 1165 849 1159 890 z m 430 972 l 65 972 l 65 729 l 261 729 l 180 486 l 436 486 l 545 812 b 528 922 558 849 551 890 b 430 972 506 953 469 972 z "},"„":{"ha":1225,"x_min":0,"x_max":0,"o":"m 1136 436 b 1038 486 1113 467 1077 486 l 673 486 l 673 243 l 869 243 l 788 0 l 1044 0 l 1153 326 b 1136 436 1165 363 1159 404 z m 430 486 l 65 486 l 65 243 l 261 243 l 180 0 l 436 0 l 545 326 b 528 436 558 363 551 404 b 430 486 506 467 469 486 z "}}}
